<svg width="700" height="700" viewBox="0 0 700 700" fill="none" xmlns="http://www.w3.org/2000/svg">
<rect width="700" height="700" rx="50" fill="#004560"/>
<path d="M219.069 589.734C217.703 593.808 213.886 596.554 209.588 596.554H136.122C129.226 596.554 124.4 589.738 126.69 583.233L292.218 113.049C293.627 109.047 297.408 106.37 301.651 106.37H397.113C401.354 106.37 405.134 109.045 406.544 113.045L572.302 583.229C574.596 589.735 569.769 596.554 562.871 596.554H489.408C485.112 596.554 481.297 593.811 479.928 589.739L351.905 208.711C351.541 207.626 350.525 206.896 349.381 206.896C348.237 206.896 347.22 207.627 346.857 208.712L219.069 589.734Z" fill="#FE7F2D"/>
<path d="M472.306 109.514C473.762 105.598 477.5 103 481.678 103H521.747C528.82 103 533.658 110.142 531.033 116.711L384.492 483.443C382.967 487.259 379.263 489.754 375.154 489.732L326.294 489.476C322.268 489.455 318.648 487.022 317.107 483.303L264.974 357.431C263.426 353.694 264.282 349.393 267.142 346.533L285.545 328.13C290.428 323.247 298.674 324.666 301.644 330.901L349.575 431.524C349.846 432.093 350.418 432.456 351.048 432.46C351.737 432.463 352.355 432.036 352.595 431.391L472.306 109.514Z" fill="#FE7F2D"/>
</svg>
